<svg xmlns="http://www.w3.org/2000/svg" xmlns:xlink="http://www.w3.org/1999/xlink" id="Layer_1" x="0" y="0" version="1.1" viewBox="0 0 110 95" xml:space="preserve" style="enable-background:new 0 0 110 95"><style type="text/css">.st0{fill:url(#SVGID_1_)}.st1{fill:#fff}</style><g><linearGradient id="SVGID_1_" x1="0" x2="110" y1="47.5" y2="47.5" gradientUnits="userSpaceOnUse"><stop offset="0" style="stop-color:#f37947"/><stop offset=".42" style="stop-color:#f16457"/><stop offset=".816" style="stop-color:#ef5562"/></linearGradient><polygon points="102.7 14.6 102.7 7.3 95.3 7.3 95.3 0 66 0 66 7.3 58.7 7.3 58.7 14.6 51.3 14.6 51.3 7.3 44 7.3 44 0 14.7 0 14.7 7.3 7.3 7.3 7.3 14.6 0 14.6 0 43.7 7.3 43.7 7.3 51.1 14.7 51.1 14.7 58.4 22 58.4 22 65.7 29.4 65.7 29.4 73 36.7 73 36.7 80.4 44 80.4 44 87.7 51.3 87.7 51.3 95 58.7 95 58.7 87.7 66 87.7 66 80.4 73.3 80.4 73.3 73 80.6 73 80.6 65.7 88 65.7 88 58.4 95.3 58.4 95.3 51.1 102.7 51.1 102.7 43.7 110 43.7 110 14.6" class="st0"/><rect width="7.2" height="16.6" x="14.6" y="15.1" class="st1"/><rect width="7.2" height="6.9" x="21.7" y="8.5" class="st1"/></g></svg>